<svg width="241" height="257" viewBox="0 0 241 257" fill="none" xmlns="http://www.w3.org/2000/svg">
<path fill-rule="evenodd" clip-rule="evenodd" d="M159.5 61L195.5 73.5L196 131.5L221.5 141.5V247.5H240C240.333 250.167 240.8 255.7 240 256.5C239.2 257.3 79.6667 256.833 0 256.5V247H17.5V154.5L44.5 144.5V93.5L70 84.5L70.5 42L159.5 0V61ZM54 99.5L81 90V47L150.5 14.5V67L186.5 80V247L160.5 247.5V81.5L150.5 78.5V247H120.5V56L140.5 64.5V30.5L90.5 55V247H54V99.5Z" fill="white"/>
<path d="M81 90L54 99.5V247H90.5V55L140.5 30.5V64.5L120.5 56V247H150.5V78.5L160.5 81.5V247.5L186.5 247V80L150.5 67V14.5L81 47V90Z" fill="white"/>
<path d="M81 90L54 99.5V247H90.5V55L140.5 30.5V64.5L120.5 56V247H150.5V78.5L160.5 81.5V247.5L186.5 247V80L150.5 67V14.5L81 47V90Z" fill="#331855"/>
<path d="M158.789 123.017C153.919 105.415 136.333 95.0277 119.166 99.7776C101.998 104.528 92.2523 122.478 97.1229 140.08C101.994 157.683 119.58 168.07 136.748 163.32C153.914 158.569 163.66 140.62 158.789 123.017ZM103.335 172.565L103.64 172.007L104.899 169.7L105.542 168.522L104.444 167.753C96.2595 162.017 89.8597 153.398 86.9533 142.894C83.8409 131.646 85.1893 119.668 90.6869 109.599C96.1835 99.5316 105.377 92.1958 116.236 89.191C127.096 86.1863 138.751 87.7532 148.641 93.5631C158.533 99.3743 165.846 108.955 168.959 120.203C172.071 131.452 170.723 143.429 165.225 153.499C159.729 163.566 150.536 170.901 139.677 173.906C129.535 176.713 119.142 175.46 110.197 171.132L108.911 170.51L108.227 171.764L106.967 174.072L106.676 174.605L108.149 179.929L85.8529 220.765L75.8479 214.888L98.1764 173.992L103.335 172.565Z" fill="#331855" stroke="white" stroke-width="3"/>
</svg>
